<svg width="26" height="26" viewBox="0 0 26 26" fill="none" xmlns="http://www.w3.org/2000/svg">
<path d="M9.83123 18.1729L13 14.9771L16.1958 18.1729L17.8208 16.5479L14.6521 13.325L17.8208 10.1021L16.1958 8.45002L13 11.6729L9.83123 8.45002L8.20623 10.1021L11.375 13.325L8.20623 16.5479L9.83123 18.1729ZM6.85206 23.4271C6.13955 23.4271 5.53261 23.1791 5.03122 22.683C4.52984 22.1869 4.27915 21.5863 4.27915 20.8813V5.90418H2.70831V3.35835H8.96456V2.05835H17.0083V3.35835H23.2916V5.90418H21.7208V20.8813C21.7208 21.5863 21.4701 22.1869 20.9687 22.683C20.4674 23.1791 19.8604 23.4271 19.1479 23.4271H6.85206ZM19.1479 5.90418H6.85206V20.8813H19.1479V5.90418Z" fill="white"/>
</svg>
