<svg width="28" height="28" viewBox="0 0 28 28" fill="none" xmlns="http://www.w3.org/2000/svg">
<path d="M10.5875 19.5708L14 16.1292L17.4417 19.5708L19.1917 17.8208L15.7792 14.35L19.1917 10.8792L17.4417 9.10001L14 12.5708L10.5875 9.10001L8.83752 10.8792L12.25 14.35L8.83752 17.8208L10.5875 19.5708ZM7.37919 25.2292C6.61187 25.2292 5.95824 24.9621 5.41828 24.4278C4.87833 23.8936 4.60835 23.2468 4.60835 22.4875V6.35834H2.91669V3.61667H9.65419V2.21667H18.3167V3.61667H25.0834V6.35834H23.3917V22.4875C23.3917 23.2468 23.1217 23.8936 22.5818 24.4278C22.0418 24.9621 21.3882 25.2292 20.6209 25.2292H7.37919ZM20.6209 6.35834H7.37919V22.4875H20.6209V6.35834Z" fill="#CDCDCD"/>
</svg>
